<?xml version="1.0" encoding="UTF-8"?>
<svg id="Layer_1" data-name="Layer 1" xmlns="http://www.w3.org/2000/svg" viewBox="0 0 1036.34 1513.51">
  <defs>
    <style>
      .cls-1 {
        fill: #539b4b;
      }

      .cls-1, .cls-2 {
        stroke-width: 0px;
      }

      .cls-2 {
        fill: #fff;
      }
    </style>
  </defs>
  <path class="cls-1" d="m676.46,294.37l33.87,9.07,32.73,10.71,31.54,12.33,30.25,13.84,28.88,15.33,27.42,16.71,25.86,18.03,24.19,19.31,22.46,20.47,20.67,21.61,18.73,22.67,16.72,23.63,14.63,24.58,6.48,12.6,5.94,12.81,5.41,13.02,4.78,13.18,4.21,13.37,3.61,13.55,1.19,6.87.3,6.79-.57,6.63-1.4,6.44-2.18,6.21-2.93,5.91-3.61,5.57-4.24,5.2-4.87,4.77-5.41,4.27-5.91,3.77-6.42,3.18-6.81,2.55-7.2,1.88-7.53,1.17-7.82.4H66.9l-7.82-.4-7.53-1.17-7.2-1.88-6.81-2.55-6.42-3.18-5.91-3.77-5.41-4.27-4.87-4.77-4.24-5.2-3.61-5.57-2.93-5.91-2.18-6.21-1.4-6.44-.57-6.63.3-6.79,1.19-6.87,3.58-13.55,4.18-13.37,4.78-13.18,5.38-13.02,5.91-12.81,6.51-12.6,14.6-24.58,16.72-23.63,18.73-22.67,20.67-21.61,22.46-20.47,24.22-19.31,25.86-18.03,27.45-16.71,28.88-15.33,30.28-13.84,31.57-12.33,32.73-10.71,33.87-9.07,19.44-4.32,19.56-3.77,19.68-3.18,19.77-2.6,19.83-2.02,19.89-1.46,19.92-.88,19.98-.27,19.95.27,19.95.88,19.92,1.46,19.89,2.02,19.83,2.6,19.74,3.18,19.65,3.77,19.56,4.32"/>
  <path class="cls-1" d="m957.8,718.17l10.24.9,9.53,2.63,8.66,4.16,7.53,5.52,6.21,6.66,4.75,7.66,3.02,8.46,1.13,9.1v155.14l-1.34,22.99-2.15,22.75-2.9,22.44-3.64,22.17-4.39,21.85-5.11,21.51-5.82,21.16-6.51,20.82-7.2,20.39-7.82,20.02-8.48,19.57-9.14,19.15-9.71,18.7-10.33,18.22-10.9,17.72-11.47,17.19-12.01,16.68-12.57,16.12-13.05,15.57-13.59,14.98-14.04,14.37-14.54,13.76-14.99,13.13-15.41,12.46-15.86,11.78-16.25,11.11-16.67,10.37-17.02,9.68-17.41,8.91-17.71,8.14-18.07,7.37-18.4,6.58-16.72,5.94-16.34,6.63-15.92,7.35-15.44,8.04-14.99,8.73-14.49,9.39-13.98,10.05-13.38,10.71-7.26,5.6-7.68,5.01-7.68-5.01-7.26-5.6-13.38-10.71-13.98-10.05-14.48-9.39-14.96-8.73-15.47-8.04-15.92-7.35-16.34-6.63-16.73-5.94-18.4-6.58-18.07-7.37-17.71-8.14-17.41-8.91-17.02-9.68-16.67-10.37-16.25-11.11-15.86-11.78-15.41-12.46-14.99-13.13-14.54-13.76-14.04-14.37-13.59-14.98-13.05-15.57-12.57-16.12-12.01-16.68-11.47-17.19-10.9-17.72-10.33-18.22-9.71-18.7-9.14-19.15-8.48-19.57-7.82-20.02-7.2-20.39-6.51-20.82-5.82-21.16-5.11-21.51-4.39-21.85-3.64-22.17-2.9-22.44-2.15-22.75-1.34-22.99v-155.14l1.02-9.1,2.96-8.46,4.69-7.66,6.18-6.66,7.53-5.52,8.63-4.16,9.53-2.63,10.24-.9h879.55"/>
  <path class="cls-1" d="m480.54,327.79l-.09-.58-.27-1.7-.39-2.81-.45-3.79-.45-4.8-.42-5.73-.3-6.6-.15-7.4.06-8.22.33-8.91.66-9.6,1.02-10.21,1.43-10.79,1.91-11.32,2.45-11.78,3.05-12.2,3.7-12.57,4.36-12.92,5.14-13.15,5.91-13.39,6.81-13.55,7.68-13.68,8.69-13.74,9.68-13.74,10.75-13.74,11.89-13.63,13.05-13.5,14.31-13.31,15.59-13.1,16.93-12.78,18.34-12.46,19.77-12.07.93.11,2.6.34,4.03.74,5.26,1.22,6.24,1.8,7.02,2.49,7.53,3.26,7.79,4.19,7.88,5.17,7.71,6.29,7.29,7.51,6.66,8.83,5.79,10.26,4.72,11.78,1.85,6.5,1.49,6.92,1.13,7.35.69,7.8-.63.19-1.82.53-2.93.88-3.97,1.27-4.93,1.67-5.82,2.07-6.63,2.47-7.38,2.89-8.03,3.32-8.63,3.77-9.11,4.22-9.56,4.67-9.92,5.14-10.18,5.65-20.94,12.76-10.57,7.16-10.54,7.69-10.45,8.22-10.27,8.75-10.04,9.34-9.68,9.89-9.29,10.48-8.81,11.09-8.24,11.67-7.62,12.28-6.93,12.92-6.12,13.55-5.26,14.19-4.33,14.85-3.32,15.49-2.21,16.2h-33.45"/>
  <path class="cls-2" d="m102.14,1080.44l415.73-8.49-420.81-8.49,5.08,16.97"/>
  <path class="cls-2" d="m85.71,1018.91l432.16-8.75-435.44-8.75,3.29,17.5"/>
  <path class="cls-2" d="m93.18,1049.67l424.69-8.75-429.17-8.75,4.48,17.5"/>
  <path class="cls-2" d="m126.33,1141.7l391.84-7.96-398.71-8.22,3.2,8.09,3.67,8.09"/>
  <path class="cls-2" d="m113.19,1110.93l404.68-8.22-410.95-8.22,6.27,16.44"/>
  <path class="cls-2" d="m76.16,957.38l441.71-9.02-443.51-9.02,1.79,18.03"/>
  <path class="cls-2" d="m73.17,834.06l445-9.02-445-9.02v18.03"/>
  <path class="cls-2" d="m73.17,864.83l445-9.02-445-9.02v18.03"/>
  <path class="cls-2" d="m73.17,917.6v-9.02l445,9.02-444.4,9.02-.6-9.02"/>
  <path class="cls-2" d="m73.17,895.85l445-9.02-445-9.02v18.03"/>
  <path class="cls-2" d="m141.27,1172.2l376.61-7.69-384.67-7.69,8.06,15.38"/>
  <path class="cls-2" d="m80.04,988.15l437.83-9.02-440.22-9.02,1.08,9.23,1.31,8.8"/>
  <path class="cls-2" d="m158.89,1202.69l358.99-7.43-367.95-7.43,8.96,14.85"/>
  <path class="cls-2" d="m499.95,1442.7l17.92-.27-19.11-.27,1.19.53"/>
  <path class="cls-2" d="m361.38,1383.56l156.8-3.18-171.13-3.45,14.34,6.63"/>
  <path class="cls-2" d="m438.73,1413l79.14-1.59-87.51-1.86,8.36,3.45"/>
  <path class="cls-2" d="m73.17,754.24l445,9.02-445,9.02v-18.03"/>
  <path class="cls-2" d="m73.17,1512.98v-2.12l3.88,2.12h-3.88"/>
  <path class="cls-2" d="m73.17,803.3l445-9.02-445-9.02v18.03"/>
  <path class="cls-2" d="m203.09,1263.43l314.79-6.36-325.54-6.63,10.75,12.99"/>
  <path class="cls-2" d="m179.49,1233.19l338.68-6.9-348.24-7.16,4.45,7.03,5.11,7.03"/>
  <path class="cls-2" d="m231.16,1293.66l286.71-5.83-298.36-6.1,11.65,11.93"/>
  <path class="cls-2" d="m306.12,1353.86l211.75-4.24-225.19-4.51,13.44,8.75"/>
  <path class="cls-2" d="m264.61,1323.89l253.26-5.04-265.81-5.3,12.54,10.34"/>
  <path class="cls-2" d="m75.56,535.18l442.31-7.16-433.95-6.9-8.36,14.06"/>
  <path class="cls-2" d="m59.13,568.86l458.74-7.43-452.17-7.16-6.57,14.59"/>
  <path class="cls-2" d="m50.17,625.08l-1.49-1.75-1.49-2.76,470.68,7.69-448.58,7.16-2.69-3.45-5.88-.72-4.69-1.72-3.49-2.25-2.36-2.2"/>
  <path class="cls-2" d="m47.79,602.54l470.09-7.69-465.61-7.43-4.48,15.12"/>
  <path class="cls-2" d="m97.36,501.23l420.51-6.63-410.06-6.63-10.45,13.26"/>
  <path class="cls-2" d="m126.03,467.29l391.84-6.36-379.59-6.1-12.24,12.46"/>
  <path class="cls-2" d="m278.05,364.39l239.82-3.98-221.9-3.45-17.92,7.43"/>
  <path class="cls-2" d="m412.75,325.4l105.13,1.59-125.44,2.12,20.31-3.71"/>
  <path class="cls-2" d="m162.77,433.34l355.1-5.83-340.77-5.57-14.34,11.4"/>
  <path class="cls-2" d="m211.15,398.86l306.72-5.04-290.59-4.77-16.13,9.81"/>
</svg>